name analog
datacolumns 19
datarows 51
range 0.2165 0.2415
endheader
time	ground_force_vx	ground_force_vy	ground_force_vz	ground_force_px	ground_force_py	ground_force_pz	l_ground_force_vx	l_ground_force_vy	l_ground_force_vz	l_ground_force_px	l_ground_force_py	l_ground_force_pz	ground_torque_x	ground_torque_y	ground_torque_z	l_ground_torque_x	l_ground_torque_y	l_ground_torque_z
0.2165	-0.0	-0.0	-0.0	-1.4930490255355835	31.533557891845703	-338.1989440917969	-5.368084907531738	-29.43158531188965	-334.1381225585937	-0.0	-0.0	-0.0	-0.0	-0.0	-0.0	72373.015625	-36668.2109375	1227.7232666015625
0.217	-0.0	-0.0	-0.0	-1.6478471755981443	29.966279983520508	-336.5805053710937	-5.634310245513916	-28.747539520263672	-331.34490966796875	-0.0	-0.0	-0.0	-0.0	-0.0	-0.0	71884.65625	-36511.93359375	1204.9166259765625
0.2175	-0.0	-0.0	-0.0	-2.0938057899475098	29.53881072998047	-333.2566223144531	-6.11850643157959	-28.19733047485352	-329.16021728515625	-0.0	-0.0	-0.0	-0.0	-0.0	-0.0	71573.421875	-36250.0390625	1034.35595703125
0.218	-0.0	-0.0	-0.0	-3.5154082775115967	28.479963302612305	-330.1515808105469	-5.3226470947265625	-27.40251350402832	-326.9861145019531	-0.0	-0.0	-0.0	-0.0	-0.0	-0.0	71261.7265625	-36236.76171875	1183.470703125
0.2185	-0.0	-0.0	-0.0	-4.959991455078125	27.802818298339844	-328.57470703125	-4.501291275024414	-26.67314910888672	-323.14599609375	-0.0	-0.0	-0.0	-0.0	-0.0	-0.0	70709.75	-36218.546875	1266.6220703125
0.219	-0.0	-0.0	-0.0	-6.446974277496338	27.62437057495117	-325.3490295410156	-3.4367151260375977	-25.920766830444336	-321.1289367675781	-0.0	-0.0	-0.0	-0.0	-0.0	-0.0	70762.0703125	-36479.02734375	1421.4315185546875
0.2195	-0.0	-0.0	-0.0	-8.142054557800293	27.18477249145508	-322.4280090332031	-2.75003433227539	-26.03191375732422	-320.612060546875	-0.0	-0.0	-0.0	-0.0	-0.0	-0.0	70247.5234375	-36615.546875	1696.50732421875
0.22	-0.0	-0.0	-0.0	-9.182111740112305	27.44559860229492	-321.3249816894531	-2.3141183853149414	-26.18547821044922	-321.310546875	-0.0	-0.0	-0.0	-0.0	-0.0	-0.0	70960.046875	-37258.8984375	1846.3441162109373
0.2205	-0.0	-0.0	-0.0	-10.056761741638184	27.654428482055664	-322.5484313964844	-3.347797393798828	-27.506023406982425	-327.4716186523437	-0.0	-0.0	-0.0	-0.0	-0.0	-0.0	71648.7578125	-37999.7890625	1748.5728759765625
0.221	-0.0	-0.0	-0.0	-10.601729393005373	27.85682678222656	-320.4579467773437	-5.25721549987793	-28.792869567871094	-332.357666015625	-0.0	-0.0	-0.0	-0.0	-0.0	-0.0	73533.890625	-39105.35546875	1665.7025146484375
0.2215	-0.0	-0.0	-0.0	-10.719961166381836	27.79925346374512	-321.9380798339844	-7.6711859703063965	-30.97768783569336	-339.8900451660156	-0.0	-0.0	-0.0	-0.0	-0.0	-0.0	75755.0078125	-40412.4921875	1454.27783203125
0.222	-0.0	-0.0	-0.0	-11.232852935791016	28.54592704772949	-323.3817749023437	-9.800085067749023	-33.13904571533203	-351.13507080078125	-0.0	-0.0	-0.0	-0.0	-0.0	-0.0	78099.1015625	-41568.35546875	1185.1849365234375
0.2225	-0.0	-0.0	-0.0	-10.648179054260254	28.991626739501957	-324.1880798339844	-11.905596733093262	-35.21700668334961	-360.8381652832031	-0.0	-0.0	-0.0	-0.0	-0.0	-0.0	80263.5625	-43249.71484375	866.3722534179688
0.223	-0.0	-0.0	-0.0	-10.405166625976562	29.842493057250977	-325.8245849609375	-13.170867919921877	-36.63542938232422	-370.8493347167969	-0.0	-0.0	-0.0	-0.0	-0.0	-0.0	82562.3984375	-44523.28125	788.3263549804688
0.2235	-0.0	-0.0	-0.0	-10.096753120422363	30.555776596069336	-326.6579895019531	-13.543462753295898	-37.96049499511719	-379.99224853515625	-0.0	-0.0	-0.0	-0.0	-0.0	-0.0	84948.3125	-45995.765625	740.0117797851562
0.224	-0.0	-0.0	-0.0	-9.94965934753418	31.14672088623047	-326.3382568359375	-13.19424057006836	-39.42674255371094	-387.37200927734375	-0.0	-0.0	-0.0	-0.0	-0.0	-0.0	86838.734375	-47289.22265625	995.10205078125
0.2245	-0.0	-0.0	-0.0	-10.751830101013184	31.884143829345703	-328.5545959472656	-12.467001914978027	-40.186370849609375	-395.1461791992188	-0.0	-0.0	-0.0	-0.0	-0.0	-0.0	88241.78125	-48554.06640625	1422.3277587890625
0.225	-0.0	-0.0	-0.0	-11.071330070495604	32.394290924072266	-330.0284118652344	-10.45054054260254	-40.3565788269043	-398.2883605957031	-0.0	-0.0	-0.0	-0.0	-0.0	-0.0	89296.7578125	-49569.83203125	1706.466796875
0.2255	-0.0	-0.0	-0.0	-11.81568431854248	33.285499572753906	-333.52252197265625	-8.369301795959473	-39.85681915283203	-399.9400939941406	-0.0	-0.0	-0.0	-0.0	-0.0	-0.0	89763.03125	-50342.41796875	2087.847900390625
0.226	-0.0	-0.0	-0.0	-11.914471626281738	33.607421875	-336.8742980957031	-5.756217956542969	-39.46291732788086	-398.3152770996094	-0.0	-0.0	-0.0	-0.0	-0.0	-0.0	89740.0859375	-50625.64453125	2588.319580078125
0.2265	-0.0	-0.0	-0.0	-11.914566040039062	34.18647003173828	-338.89581298828125	-2.75003433227539	-38.39607620239258	-395.2114868164063	-0.0	-0.0	-0.0	-0.0	-0.0	-0.0	88747.46875	-50851.75390625	3124.665771484375
0.227	-0.0	-0.0	-0.0	-11.61202335357666	34.67618942260742	-340.25103759765625	0.4361323118209839	-37.38400268554688	-389.6824340820313	-0.0	-0.0	-0.0	-0.0	-0.0	-0.0	87859.9375	-50587.32421875	3536.908203125
0.2275	-0.0	-0.0	-0.0	-10.537355422973633	34.77526092529297	-340.24188232421875	3.137620449066162	-35.914329528808594	-381.74810791015625	-0.0	-0.0	-0.0	-0.0	-0.0	-0.0	86561.3203125	-50228.109375	4032.89306640625
0.228	-0.0	-0.0	-0.0	-8.578484535217285	34.618247985839844	-337.39990234375	6.11311674118042	-34.30076217651367	-373.369384765625	-0.0	-0.0	-0.0	-0.0	-0.0	-0.0	84641.53125	-49679.66015625	4563.8974609375
0.2285	-0.0	-0.0	-0.0	-6.754940032958984	33.580135345458984	-335.01300048828125	8.354805946350098	-32.614837646484375	-366.06927490234375	-0.0	-0.0	-0.0	-0.0	-0.0	-0.0	82694.9296875	-49007.76953125	5134.8837890625
0.229	-0.0	-0.0	-0.0	-5.338796615600586	33.22053909301758	-333.40185546875	9.556458473205566	-32.44551086425781	-361.5919189453125	-0.0	-0.0	-0.0	-0.0	-0.0	-0.0	82087.5546875	-48783.88671875	5214.14501953125
0.2295	-0.0	-0.0	-0.0	-3.824571371078491	32.64687728881836	-335.8199157714844	10.436569213867188	-32.301490783691406	-361.5910034179688	-0.0	-0.0	-0.0	-0.0	-0.0	-0.0	81714.359375	-48851.58984375	5274.18310546875
0.23	-0.0	-0.0	-0.0	-2.2673184871673584	32.352691650390625	-336.227294921875	10.54117202758789	-32.71869659423828	-359.5299987792969	-0.0	-0.0	-0.0	-0.0	-0.0	-0.0	81597.3984375	-48619.61328125	5206.7333984375
0.2305	-0.0	-0.0	-0.0	-1.18503737449646	32.009796142578125	-338.0406799316406	10.241490364074709	-32.88003921508789	-360.4208068847656	-0.0	-0.0	-0.0	-0.0	-0.0	-0.0	81775.3828125	-48963.05078125	5109.3330078125
0.231	-0.0	-0.0	-0.0	-0.5982581377029419	32.32899475097656	-340.669677734375	8.65403938293457	-33.5866813659668	-362.2261352539063	-0.0	-0.0	-0.0	-0.0	-0.0	-0.0	82175.359375	-49409.28515625	5020.92529296875
0.2315	-0.0	-0.0	-0.0	-0.4589188694953918	32.02352523803711	-342.1295166015625	7.372791290283203	-34.725189208984375	-363.85455322265625	-0.0	-0.0	-0.0	-0.0	-0.0	-0.0	82837.3125	-49334.046875	4556.4501953125
0.232	-0.0	-0.0	-0.0	0.4207195937633514	31.92133903503418	-343.6949462890625	5.943622589111328	-35.59364318847656	-366.5120239257813	-0.0	-0.0	-0.0	-0.0	-0.0	-0.0	83081.484375	-49696.921875	4431.642578125
0.2325	-0.0	-0.0	-0.0	0.8928500413894653	31.794727325439453	-344.9033203125	4.854320049285889	-36.76648712158203	-369.248291015625	-0.0	-0.0	-0.0	-0.0	-0.0	-0.0	83599.6328125	-50040.61328125	4091.22265625
0.233	-0.0	-0.0	-0.0	0.9679580926895142	31.95992088317871	-347.2245178222656	3.9634811878204346	-37.25756454467773	-371.0920715332031	-0.0	-0.0	-0.0	-0.0	-0.0	-0.0	84071.8125	-50254.51953125	4062.0947265625
0.2335	-0.0	-0.0	-0.0	1.019148349761963	31.756088256835938	-348.8937072753906	3.928140640258789	-37.790977478027344	-372.6558837890625	-0.0	-0.0	-0.0	-0.0	-0.0	-0.0	84300.515625	-50307.22265625	3921.8818359375
0.234	-0.0	-0.0	-0.0	0.905971884727478	32.26520538330078	-350.70770263671875	3.736927032470703	-38.257102966308594	-371.4862976074219	-0.0	-0.0	-0.0	-0.0	-0.0	-0.0	84127.453125	-50167.04296875	3878.9296875
0.23450000000000001	-0.0	-0.0	-0.0	0.6620510816574097	32.72261047363281	-356.30291748046875	4.310573577880859	-37.40984344482422	-369.7958679199219	-0.0	-0.0	-0.0	-0.0	-0.0	-0.0	83522.4921875	-49871.96875	3778.437255859375
0.23500000000000001	-0.0	-0.0	-0.0	0.3827254176139831	33.00687026977539	-357.8170471191406	3.903274536132813	-36.80519485473633	-364.0132446289063	-0.0	-0.0	-0.0	-0.0	-0.0	-0.0	82562.3359375	-49329.05078125	3794.949462890625
0.23550000000000001	-0.0	-0.0	-0.0	-0.0892105102539062	33.65404510498047	-359.890380859375	4.815522193908691	-35.668731689453125	-357.3800048828125	-0.0	-0.0	-0.0	-0.0	-0.0	-0.0	80738.53125	-48133.3828125	3643.041748046875
0.23600000000000002	-0.0	-0.0	-0.0	-0.9664812088012696	34.86480712890625	-363.3634338378906	5.905285358428955	-33.56224060058594	-347.3023681640625	-0.0	-0.0	-0.0	-0.0	-0.0	-0.0	78748.7734375	-46845.50390625	3640.326904296875
0.23650000000000002	-0.0	-0.0	-0.0	-1.0814615488052368	35.70008087158203	-366.807373046875	6.589864730834961	-31.96015167236328	-337.7777099609375	-0.0	-0.0	-0.0	-0.0	-0.0	-0.0	76682.5	-45580.609375	3615.581787109375
0.23700000000000002	-0.0	-0.0	-0.0	-1.4488385915756226	36.53274154663086	-369.44476318359375	8.098014831542969	-30.218582153320312	-328.9505310058594	-0.0	-0.0	-0.0	-0.0	-0.0	-0.0	74599.1875	-44593.69140625	3506.911865234375
0.23750000000000002	-0.0	-0.0	-0.0	-0.6612741947174072	37.24091720581055	-370.5895080566406	9.175162315368652	-29.335317611694336	-325.3094177246094	-0.0	-0.0	-0.0	-0.0	-0.0	-0.0	73246.4375	-43994.8359375	3656.23779296875
0.23800000000000002	-0.0	-0.0	-0.0	-0.2939169704914093	37.00503540039063	-370.7569580078125	10.113029479980469	-28.969512939453125	-325.0601806640625	-0.0	-0.0	-0.0	-0.0	-0.0	-0.0	73244.6875	-43793.203125	3805.344482421875
0.23850000000000002	-0.0	-0.0	-0.0	1.2225953340530396	36.68525695800781	-369.5305480957031	10.416821479797363	-29.66275405883789	-327.901123046875	-0.0	-0.0	-0.0	-0.0	-0.0	-0.0	74086.234375	-44257.625	3839.548583984375
0.23900000000000002	-0.0	-0.0	-0.0	2.382285594940185	36.76811599731445	-367.6999816894531	9.910036087036133	-30.482925415039062	-331.39208984375	-0.0	-0.0	-0.0	-0.0	-0.0	-0.0	75020.109375	-44616.93359375	3897.856689453125
0.23950000000000002	-0.0	-0.0	-0.0	4.014472961425781	36.25938415527344	-366.4959411621094	9.01109218597412	-31.65640640258789	-338.1260070800781	-0.0	-0.0	-0.0	-0.0	-0.0	-0.0	76503.6328125	-45280.08203125	3651.69140625
0.24	-0.0	-0.0	-0.0	5.398325443267822	36.33129501342773	-366.6007690429688	6.970876693725586	-32.981101989746094	-345.3564453125	-0.0	-0.0	-0.0	-0.0	-0.0	-0.0	77989.0625	-46237.41015625	3429.009521484375
0.2405	-0.0	-0.0	-0.0	5.610929012298584	36.285400390625	-369.2153930664063	5.577462196350098	-34.707275390625	-356.2682800292969	-0.0	-0.0	-0.0	-0.0	-0.0	-0.0	79902.3515625	-47028.37890625	3237.157958984375
0.241	-0.0	-0.0	-0.0	5.210074424743652	36.82831954956055	-371.79290771484375	4.853248596191406	-35.47958755493164	-362.0124816894531	-0.0	-0.0	-0.0	-0.0	-0.0	-0.0	81239.2734375	-47665.66796875	3126.448486328125
0.2415	-0.0	-0.0	-0.0	3.452490329742432	37.76459503173828	-381.0811767578125	4.675780296325684	-35.733516693115234	-367.3509521484375	-0.0	-0.0	-0.0	-0.0	-0.0	-0.0	82382.0	-48420.6796875	2986.626220703125
